<svg xmlns="http://www.w3.org/2000/svg" viewBox="0 0 120 120" xml:space="preserve" width="120" height="120"><path style="fill:#0eddf0" d="M29.519 80.59h11.273v21.545h-11.273zm26.305 0h11.273v21.545h-11.273zm26.305 0h11.273v21.545h-11.273z"/><path style="fill:#efefef" d="M18.246 69.317h86.43v11.273H18.246z"/><path style="fill:#39b54a" d="M116.325 46.77h-22.923v22.547h11.273v-7.891z"/><path style="fill:#ffde17" d="M18.246 51.78h37.578v17.537H18.246z"/><path style="fill:#f7941e" d="M45.803 26.873h10.021v24.907h-10.021z"/><path style="fill:#a7a9ac" d="M6.328 26.873h13.157v10.021H6.328zm13.16 0h13.157v10.021H19.488zm13.157 0h13.157v10.021h-13.157z"/><path style="fill:#231f20" d="M2.505 104.681c1.78 0 2.556 0.406 3.63 0.968 1.31 0.685 2.941 1.538 5.952 1.538 3.011 0 4.642 -0.853 5.952 -1.538 1.074 -0.562 1.85 -0.968 3.63 -0.968s2.556 0.406 3.63 0.968c1.31 0.685 2.941 1.538 5.952 1.538s4.642 -0.852 5.952 -1.538c1.074 -0.562 1.85 -0.968 3.63 -0.968 1.78 0 2.556 0.406 3.63 0.968 1.31 0.685 2.941 1.538 5.952 1.538s4.641 -0.853 5.951 -1.538c1.074 -0.562 1.85 -0.967 3.63 -0.967s2.556 0.406 3.63 0.968c1.31 0.685 2.941 1.538 5.952 1.538s4.642 -0.852 5.952 -1.538c1.074 -0.562 1.85 -0.968 3.63 -0.968s2.557 0.406 3.631 0.968c1.31 0.685 2.941 1.538 5.952 1.538s4.642 -0.852 5.952 -1.538c1.074 -0.562 1.85 -0.968 3.63 -0.968 1.781 0 2.557 0.406 3.631 0.968 1.31 0.685 2.941 1.538 5.953 1.538s4.642 -0.852 5.953 -1.538c1.074 -0.562 1.851 -0.968 3.631 -0.968 1.384 0 2.505 -1.121 2.505 -2.505s-1.121 -2.505 -2.505 -2.505c-3.011 0 -4.642 0.852 -5.953 1.538 -1.074 0.561 -1.85 0.967 -3.628 0.968h-0.006c-1.778 0 -2.555 -0.406 -3.628 -0.968 -1.31 -0.685 -2.941 -1.538 -5.952 -1.538 -0.927 0 -1.723 0.081 -2.419 0.213v-16.789h8.768c1.384 0 2.505 -1.121 2.505 -2.505v-18.291l11.105 -13.971a2.505 2.505 0 0 0 -1.961 -4.064h-22.923c-1.384 0 -2.505 1.121 -2.505 2.505v20.042h-5.248l-2.646 -57.735a2.505 2.505 0 0 0 -2.502 -2.39h-3.006V3.137c0 -1.384 -1.121 -2.505 -2.505 -2.505s-2.505 1.121 -2.505 2.505v3.549h-3.006a2.505 2.505 0 0 0 -2.502 2.39L64.329 66.811h-6v-39.938c0 -1.384 -1.121 -2.505 -2.505 -2.505H6.329c-1.384 0 -2.505 1.121 -2.505 2.505v10.021c0 1.384 1.121 2.505 2.505 2.505H43.298v9.875H18.246c-1.384 0 -2.505 1.121 -2.505 2.505V80.59c0 1.384 1.121 2.505 2.505 2.505h8.768v17.803c-1.217 -0.607 -2.779 -1.226 -5.346 -1.226 -3.011 0 -4.641 0.853 -5.952 1.538 -1.073 0.561 -1.849 0.967 -3.627 0.968h-0.006c-1.563 0 -2.352 -0.314 -3.249 -0.772V59.003c0 -1.384 -1.121 -2.505 -2.505 -2.505s-2.505 1.121 -2.505 2.505v40.729a14.063 14.063 0 0 0 -1.319 -0.061C1.121 99.671 0 100.793 0 102.176s1.121 2.505 2.505 2.505m50.814 -21.586v18.481c-0.768 0.363 -1.542 0.6 -2.901 0.6h-0.006c-1.778 0 -2.554 -0.406 -3.627 -0.968 -0.898 -0.469 -1.947 -1.018 -3.487 -1.316v-16.798h10.021zm26.305 0V99.68a15.703 15.703 0 0 0 -0.463 -0.008c-3.011 0 -4.642 0.852 -5.952 1.538 -1.069 0.559 -1.844 0.964 -3.608 0.967 0 -0.014 0.002 -0.028 0.002 -0.041V83.095zm-15.031 17.453c-1.11 -0.474 -2.527 -0.877 -4.596 -0.877 -0.61 0 -1.161 0.036 -1.667 0.098v-16.674h6.263zm26.305 1.331c-0.567 0.186 -1.222 0.297 -2.15 0.298h-0.006c-1.778 0 -2.554 -0.406 -3.628 -0.968 -0.155 -0.081 -0.314 -0.164 -0.479 -0.248V83.095h6.263zm5.01 -52.604h15.226l-8.419 10.591a2.508 2.508 0 0 0 -0.544 1.559v5.386h-6.263zm-25.578 -3.958 8.425 8.424 -9.234 9.234zm1.114 -24.312 6.099 6.099 -6.685 6.684zm8.312 26.653 -7.841 -7.841 7.153 -7.153zm0.533 11.635 0.345 7.519h-7.864zM78.108 11.696l0.427 9.312 -6.78 -6.78 0.116 -2.532zM8.834 29.379h8.148v5.01H8.834zm13.158 0h8.148v5.01H21.992zm13.158 5.01V29.379h8.148v5.01zm13.158 -5.01h5.01v19.896h-5.01zM20.751 54.285h32.568v12.526H20.751zm0 17.537h81.42v6.263H20.751zm17.536 11.273v16.815c-1.496 0.302 -2.525 0.838 -3.407 1.299 -0.904 0.473 -1.599 0.834 -2.857 0.937l0 -0.011v-19.04zM117.495 111.853c-3.011 0 -4.642 0.852 -5.953 1.538 -1.075 0.562 -1.851 0.968 -3.631 0.968s-2.557 -0.406 -3.631 -0.968c-1.31 -0.685 -2.941 -1.538 -5.952 -1.538s-4.642 0.852 -5.952 1.538c-1.074 0.562 -1.85 0.968 -3.63 0.968s-2.557 -0.406 -3.631 -0.968c-1.31 -0.685 -2.941 -1.538 -5.952 -1.538s-4.642 0.852 -5.952 1.538c-1.074 0.562 -1.85 0.968 -3.63 0.968s-2.556 -0.406 -3.63 -0.968c-1.31 -0.685 -2.941 -1.538 -5.952 -1.538s-4.641 0.853 -5.952 1.538c-1.074 0.562 -1.85 0.967 -3.63 0.967s-2.556 -0.406 -3.63 -0.968c-1.31 -0.685 -2.941 -1.538 -5.952 -1.538s-4.642 0.852 -5.952 1.538c-1.074 0.562 -1.85 0.968 -3.63 0.968s-2.556 -0.406 -3.63 -0.968c-1.31 -0.685 -2.941 -1.538 -5.952 -1.538s-4.641 0.853 -5.952 1.538c-1.074 0.562 -1.85 0.968 -3.63 0.968s-2.556 -0.406 -3.63 -0.967c-1.31 -0.685 -2.941 -1.538 -5.952 -1.538C1.121 111.853 0 112.974 0 114.358s1.121 2.505 2.505 2.505c1.78 0 2.556 0.406 3.63 0.968 1.31 0.685 2.941 1.538 5.952 1.538 3.011 0 4.642 -0.853 5.952 -1.538 1.074 -0.562 1.85 -0.968 3.63 -0.968s2.556 0.406 3.63 0.968c1.31 0.685 2.941 1.538 5.952 1.538s4.642 -0.852 5.952 -1.538c1.074 -0.562 1.85 -0.968 3.63 -0.968 1.78 0 2.556 0.406 3.63 0.968 1.31 0.685 2.941 1.538 5.952 1.538s4.641 -0.853 5.951 -1.538c1.074 -0.562 1.85 -0.967 3.63 -0.967s2.556 0.406 3.63 0.968c1.31 0.685 2.941 1.538 5.952 1.538s4.642 -0.852 5.952 -1.538c1.074 -0.562 1.85 -0.968 3.63 -0.968s2.557 0.406 3.631 0.968c1.31 0.685 2.941 1.538 5.952 1.538s4.642 -0.852 5.952 -1.538c1.074 -0.562 1.85 -0.968 3.63 -0.968 1.781 0 2.557 0.406 3.631 0.968 1.31 0.685 2.941 1.538 5.953 1.538s4.642 -0.852 5.953 -1.538c1.074 -0.562 1.851 -0.968 3.631 -0.968 1.384 0 2.505 -1.121 2.505 -2.505s-1.122 -2.505 -2.505 -2.505"/><path style="fill:#231f20" d="M6.329 50.736c1.384 0 2.505 -1.121 2.505 -2.505v-0.167c0 -1.384 -1.121 -2.505 -2.505 -2.505s-2.505 1.121 -2.505 2.505v0.167c0 1.384 1.122 2.505 2.505 2.505"/></svg>